<?xml version="1.0" standalone="no"?>
<!DOCTYPE svg PUBLIC "-//W3C//DTD SVG 20010904//EN"
 "http://www.w3.org/TR/2001/REC-SVG-20010904/DTD/svg10.dtd">
<svg version="1.0" xmlns="http://www.w3.org/2000/svg"
 width="200.000000pt" height="200.000000pt" viewBox="0 0 200.000000 200.000000"
 preserveAspectRatio="xMidYMid meet">
<metadata>
Created by potrace 1.11, written by Peter Selinger 2001-2013
</metadata>
<g transform="translate(0.000000,200.000000) scale(0.100000,-0.100000)"
fill="#000000" stroke="none">
<path d="M962 1737 c-60 -22 -89 -99 -61 -160 6 -14 29 -34 50 -46 21 -12 39
-26 39 -30 0 -5 -25 -11 -56 -15 -146 -17 -279 -126 -330 -270 -22 -60 -29
-184 -14 -247 63 -272 356 -414 604 -295 266 128 329 477 125 685 -48 49 -48
49 -27 67 11 11 23 18 26 16 16 -8 10 16 -7 32 -14 13 -24 15 -37 8 -12 -7
-13 -11 -5 -17 9 -5 8 -12 -4 -25 -15 -17 -18 -17 -58 4 -50 26 -115 46 -151
46 -35 0 -33 16 4 35 80 41 77 170 -5 209 -38 18 -48 19 -93 3z m89 -23 c55
-28 67 -102 24 -148 -33 -35 -45 -33 -45 9 0 28 4 35 20 35 16 0 20 7 20 30
l0 30 -60 0 -60 0 0 -30 c0 -23 4 -30 20 -30 17 0 20 -7 20 -40 l0 -41 -30 16
c-34 18 -50 43 -50 79 0 78 74 125 141 90z m68 -312 c252 -84 329 -407 141
-592 -177 -174 -463 -126 -576 97 -26 52 -29 68 -29 153 0 82 4 103 27 152 15
32 48 79 75 105 44 43 65 56 153 91 38 15 158 12 209 -6z"/>
<path d="M990 1355 c0 -14 5 -25 10 -25 6 0 10 11 10 25 0 14 -4 25 -10 25 -5
0 -10 -11 -10 -25z"/>
<path d="M843 1343 c-9 -3 -9 -10 -1 -29 11 -24 23 -30 32 -16 7 12 -18 49
-31 45z"/>
<path d="M1142 1330 c-6 -11 -12 -24 -12 -30 0 -18 19 -11 31 11 14 28 -3 45
-19 19z"/>
<path d="M1147 1188 c-104 -80 -117 -88 -153 -105 -8 -5 -16 -12 -15 -18 0 -5
-8 -18 -16 -27 -9 -10 -11 -18 -5 -18 6 0 13 4 17 10 3 5 12 7 20 4 8 -3 21 5
30 20 9 14 56 58 103 98 173 145 179 158 19 36z"/>
<path d="M720 1221 c0 -5 11 -16 24 -25 29 -18 44 1 17 21 -19 15 -41 17 -41
4z"/>
<path d="M1244 1216 c-10 -8 -16 -18 -12 -22 11 -10 60 14 53 26 -8 14 -18 13
-41 -4z"/>
<path d="M680 1060 c0 -5 11 -10 25 -10 14 0 25 5 25 10 0 6 -11 10 -25 10
-14 0 -25 -4 -25 -10z"/>
<path d="M1290 1060 c0 -5 6 -10 14 -10 8 0 18 5 21 10 3 6 -3 10 -14 10 -12
0 -21 -4 -21 -10z"/>
<path d="M739 921 c-13 -11 -21 -22 -17 -26 10 -10 48 14 48 30 0 19 -3 19
-31 -4z"/>
<path d="M1236 933 c-11 -11 -6 -20 18 -31 19 -8 25 -8 29 2 6 14 -36 39 -47
29z"/>
<path d="M1134 826 c-6 -16 11 -46 27 -46 13 0 10 23 -6 44 -13 17 -15 18 -21
2z"/>
<path d="M840 811 c-14 -27 7 -39 25 -15 18 24 19 34 0 34 -8 0 -19 -9 -25
-19z"/>
<path d="M990 765 c0 -14 5 -25 10 -25 6 0 10 11 10 25 0 14 -4 25 -10 25 -5
0 -10 -11 -10 -25z"/>
<path d="M246 1354 c-14 -14 -16 -69 -16 -454 0 -385 2 -440 16 -454 14 -14
96 -16 753 -16 702 0 739 1 754 18 15 17 17 63 17 454 0 409 -1 436 -18 451
-16 15 -45 17 -192 17 l-174 0 29 -30 29 -30 123 0 123 0 0 -400 0 -400 -700
0 -700 0 0 400 0 400 143 0 143 0 22 30 23 30 -180 0 c-150 0 -182 -3 -195
-16z"/>
<path d="M10 376 c0 -70 -59 -66 993 -66 935 0 943 0 965 20 13 12 22 33 22
50 l0 30 -419 0 c-410 0 -419 0 -424 -20 -5 -19 -14 -20 -147 -20 -133 0 -142
1 -147 20 -5 20 -14 20 -424 20 l-419 0 0 -34z"/>
</g>
</svg>
